<svg id="visual" viewBox="0 0 960 300" width="960" height="300" xmlns="http://www.w3.org/2000/svg" xmlns:xlink="http://www.w3.org/1999/xlink" version="1.1"><rect x="0" y="0" width="960" height="300" fill="#14202B"></rect><path d="M0 106L20 105.7C40 105.3 80 104.7 120 102.8C160 101 200 98 240 103.2C280 108.3 320 121.7 360 123.2C400 124.7 440 114.3 480 112C520 109.7 560 115.3 600 122.5C640 129.7 680 138.3 720 139.3C760 140.3 800 133.7 840 130.7C880 127.7 920 128.3 940 128.7L960 129L960 301L940 301C920 301 880 301 840 301C800 301 760 301 720 301C680 301 640 301 600 301C560 301 520 301 480 301C440 301 400 301 360 301C320 301 280 301 240 301C200 301 160 301 120 301C80 301 40 301 20 301L0 301Z" fill="#35575f"></path><path d="M0 178L20 181.8C40 185.7 80 193.3 120 196.7C160 200 200 199 240 191C280 183 320 168 360 161.8C400 155.7 440 158.3 480 166C520 173.7 560 186.3 600 187.3C640 188.3 680 177.7 720 172.8C760 168 800 169 840 168.8C880 168.7 920 167.3 940 166.7L960 166L960 301L940 301C920 301 880 301 840 301C800 301 760 301 720 301C680 301 640 301 600 301C560 301 520 301 480 301C440 301 400 301 360 301C320 301 280 301 240 301C200 301 160 301 120 301C80 301 40 301 20 301L0 301Z" fill="#97a59b"></path><path d="M0 243L20 238C40 233 80 223 120 226.2C160 229.3 200 245.7 240 253.8C280 262 320 262 360 258.2C400 254.3 440 246.7 480 239.5C520 232.3 560 225.7 600 229C640 232.3 680 245.7 720 250.5C760 255.3 800 251.7 840 250.3C880 249 920 250 940 250.5L960 251L960 301L940 301C920 301 880 301 840 301C800 301 760 301 720 301C680 301 640 301 600 301C560 301 520 301 480 301C440 301 400 301 360 301C320 301 280 301 240 301C200 301 160 301 120 301C80 301 40 301 20 301L0 301Z" fill="#fcf9f5"></path></svg>